<svg width="600" height="400" version="1.1" xmlns="http://www.w3.org/2000/svg">
 <path d="m0 0h600v200h-600z" fill="#162b49"/>
 <path d="m0 200h600v200h-600z" fill="#f8f1e0"/>
 <g fill="#ebad21">
  <circle cx="200" cy="200" r="105"/>
  <path d="m245 265v55l15 15 15-15v-55zm-120 0v55l15 15 15-15v-55zm60 30v55l15 15 15-15v-55zm60-28.5v53.5l15 15 15-15v-53.5zm-245-81.5v30h600v-30z"/>
 </g>
 <circle cx="200" cy="200" r="75" fill="#c6202e"/>
 <path d="m200 178.3 21.8-15.8-3 26.7 24.6 10.8-24.6 10.9 3 26.7-21.8-15.9-21.7 15.9 2.9-26.7-24.7-10.9 24.7-10.8-2.9-26.7z" fill="#f8f1e0"/>
</svg>
